<?xml version="1.0" encoding="utf-8"?>
<!-- Generator: Adobe Illustrator 17.0.0, SVG Export Plug-In . SVG Version: 6.00 Build 0)  -->
<!DOCTYPE svg PUBLIC "-//W3C//DTD SVG 1.1//EN" "http://www.w3.org/Graphics/SVG/1.1/DTD/svg11.dtd">
<svg version="1.1" id="Layer_1" xmlns="http://www.w3.org/2000/svg" xmlns:xlink="http://www.w3.org/1999/xlink" x="0px" y="0px"
	 width="1090px" height="151px" viewBox="-216.5 163.5 1090 151" enable-background="new -216.5 163.5 1090 151"
	 xml:space="preserve">
<title>horizontal double helix green</title>
<g opacity="0.8" enable-background="new    ">
	<title>Layer 1</title>
	<g id="svg_1" transform="rotate(90, 329.41, 157.215)">
		
			<path id="use2756" marker-mid="none" marker-start="none" marker-end="none" opacity="0.8" fill="#24A024" enable-background="new    " d="
			M362.079,565.09c-4.058,4.61-6.276,9.184-6.279,13.794c-0.006,7.648,6.109,15.34,16.599,22.989
			c10.491,7.648,25.237,15.276,40.079,22.924c14.841,7.649,29.58,15.276,40.078,22.924c4.162,3.032,7.646,6.035,10.32,9.067
			c4.062-4.61,6.323-9.185,6.32-13.794c-0.006-7.648-6.141-15.34-16.64-22.989c-10.498-7.649-25.237-15.276-40.078-22.924
			c-14.842-7.649-29.588-15.276-40.079-22.925C368.241,571.125,364.755,568.122,362.079,565.09z"/>
		
			<path id="use2758" marker-mid="none" marker-start="none" marker-end="none" opacity="0.8" fill="#24A024" enable-background="new    " d="
			M362.079,381.747c-4.058,4.61-6.276,9.184-6.279,13.794c-0.006,7.648,6.109,15.34,16.599,22.989
			c10.491,7.648,25.237,15.276,40.079,22.924c14.841,7.649,29.579,15.276,40.078,22.925c4.162,3.032,7.646,6.034,10.32,9.066
			c4.062-4.609,6.323-9.184,6.32-13.794c-0.006-7.648-6.141-15.34-16.64-22.989c-10.499-7.648-25.237-15.276-40.078-22.924
			c-14.842-7.649-29.588-15.276-40.079-22.925C368.241,387.781,364.755,384.78,362.079,381.747z"/>
		
			<path id="use2760" marker-mid="none" marker-start="none" marker-end="none" opacity="0.8" fill="#24A024" enable-background="new    " d="
			M362.079,196.336c-4.058,4.61-6.276,9.184-6.279,13.794c-0.006,7.648,6.109,15.34,16.599,22.989
			c10.491,7.649,25.237,15.276,40.079,22.924c14.841,7.649,29.579,15.276,40.078,22.925c4.162,3.032,7.646,6.034,10.32,9.066
			c4.062-4.609,6.323-9.184,6.32-13.794c-0.006-7.648-6.141-15.34-16.64-22.989c-10.499-7.648-25.237-15.276-40.078-22.924
			c-14.842-7.649-29.588-15.276-40.079-22.924C368.241,202.37,364.755,199.368,362.079,196.336z"/>
		
			<path id="use2762" marker-mid="none" marker-start="none" marker-end="none" opacity="0.8" fill="#24A024" enable-background="new    " d="
			M362.079,12.77c-4.058,4.609-6.276,9.184-6.279,13.794c-0.006,7.648,6.109,15.34,16.599,22.989
			c10.491,7.649,25.237,15.276,40.079,22.924c14.841,7.649,29.58,15.276,40.078,22.924c4.162,3.032,7.646,6.034,10.32,9.066
			c4.062-4.609,6.323-9.184,6.32-13.794c-0.006-7.649-6.141-15.34-16.64-22.989c-10.498-7.649-25.237-15.276-40.078-22.924
			c-14.842-7.649-29.588-15.276-40.079-22.925C368.241,18.804,364.755,15.802,362.079,12.77z"/>
		
			<path id="use2764" marker-mid="none" marker-start="none" marker-end="none" opacity="0.8" fill="#24A024" enable-background="new    " d="
			M362.079-172.354c-4.058,4.61-6.276,9.185-6.279,13.794c-0.006,7.649,6.109,15.34,16.599,22.989
			c10.491,7.649,25.237,15.276,40.079,22.924c14.841,7.649,29.58,15.276,40.078,22.925c4.162,3.032,7.646,6.034,10.32,9.066
			c4.062-4.609,6.323-9.184,6.32-13.794c-0.006-7.648-6.141-15.34-16.64-22.989c-10.498-7.648-25.237-15.275-40.078-22.924
			c-14.842-7.649-29.588-15.276-40.079-22.924C368.241-166.32,364.755-169.322,362.079-172.354z"/>
		
			<path id="path2766" marker-mid="none" marker-start="none" marker-end="none" opacity="0.8" fill="#24A024" enable-background="new    " d="
			M362.079-357.605c-4.058,4.609-6.276,9.184-6.279,13.793c-0.006,7.649,6.109,15.341,16.599,22.989
			c10.491,7.649,25.237,15.276,40.079,22.925c14.841,7.648,29.579,15.275,40.078,22.924c4.162,3.032,7.646,6.034,10.32,9.066
			c4.062-4.609,6.323-9.184,6.32-13.793c-0.006-7.649-6.141-15.341-16.64-22.99c-10.499-7.648-25.237-15.275-40.078-22.924
			c-14.842-7.649-29.588-15.276-40.079-22.924C368.241-351.571,364.755-354.573,362.079-357.605z"/>
		
			<path id="use2776" marker-mid="none" marker-start="none" marker-end="none" opacity="0.8" fill="#24A024" enable-background="new    " d="
			M362.079-238.397c-4.058,4.609-6.276,9.184-6.279,13.793c-0.006,7.649,6.109,15.341,16.599,22.989
			c10.491,7.649,25.237,15.276,40.079,22.925c14.841,7.648,29.579,15.276,40.078,22.924c4.162,3.032,7.646,6.034,10.32,9.066
			c4.062-4.609,6.323-9.184,6.32-13.793c-0.006-7.649-6.141-15.341-16.64-22.989c-10.499-7.649-25.237-15.276-40.078-22.925
			c-14.842-7.648-29.588-15.275-40.079-22.924C368.241-232.363,364.755-235.365,362.079-238.397z"/>
		
			<path id="use2788" marker-mid="none" marker-start="none" marker-end="none" opacity="0.8" fill="#24A024" enable-background="new    " d="
			M462.876-146.7c-2.743,3.179-6.151,6.092-10.32,9.131c-10.49,7.649-25.237,15.276-40.078,22.925
			c-14.842,7.648-29.58,15.34-40.079,22.989C361.9-84.007,355.806-76.38,355.8-68.731c-0.002,2.31,0.037,23.093,0.037,27.736
			c0-4.593,4.129-11.256,6.282-13.878c2.12-2.581,6.126-6.039,10.28-9.066c10.499-7.648,25.237-15.34,40.079-22.989
			c14.841-7.649,29.588-15.276,40.078-22.924c10.491-7.649,16.646-15.276,16.64-22.925c-0.002-2.369,0.006-20.788-0.02-27.629
			C469.208-153.544,465.633-149.895,462.876-146.7z"/>
		
			<path id="use2790" marker-mid="none" marker-start="none" marker-end="none" opacity="0.8" fill="#24A024" enable-background="new    " d="
			M362.079-53.273c-4.058,4.609-6.276,9.184-6.279,13.793c-0.006,7.649,6.109,15.341,16.599,22.989
			c10.491,7.649,25.237,15.276,40.079,22.925c14.841,7.648,29.58,15.275,40.078,22.924c4.162,3.032,7.646,6.034,10.32,9.066
			c4.062-4.609,6.323-9.184,6.32-13.794c-0.006-7.648-6.141-15.34-16.64-22.989c-10.498-7.648-25.237-15.275-40.078-22.924
			c-14.842-7.649-29.588-15.276-40.079-22.924C368.241-47.239,364.755-50.242,362.079-53.273z"/>
		
			<path id="use2802" marker-mid="none" marker-start="none" marker-end="none" opacity="0.8" fill="#24A024" enable-background="new    " d="
			M462.876,38.552c-2.743,3.179-6.151,6.092-10.32,9.131c-10.49,7.649-25.237,15.276-40.078,22.924
			c-14.842,7.649-29.58,15.341-40.079,22.989c-10.499,7.649-16.594,15.276-16.599,22.924c-0.002,2.31,0.037,23.093,0.037,27.736
			c0-4.594,4.129-11.256,6.282-13.878c2.12-2.581,6.126-6.039,10.28-9.066c10.499-7.649,25.237-15.341,40.079-22.989
			c14.841-7.649,29.588-15.276,40.078-22.924c10.491-7.649,16.645-15.276,16.64-22.924c-0.002-2.369,0.006-20.788-0.02-27.629
			C469.208,31.709,465.633,35.356,462.876,38.552z"/>
		
			<path id="use2804" marker-mid="none" marker-start="none" marker-end="none" opacity="0.8" fill="#24A024" enable-background="new    " d="
			M362.079,130.292c-4.058,4.609-6.276,9.184-6.279,13.794c-0.006,7.649,6.109,15.34,16.599,22.989
			c10.491,7.648,25.237,15.275,40.079,22.924c14.841,7.648,29.58,15.275,40.078,22.924c4.162,3.032,7.646,6.034,10.32,9.066
			c4.062-4.609,6.323-9.184,6.32-13.793c-0.006-7.649-6.141-15.341-16.64-22.989c-10.498-7.649-25.237-15.276-40.078-22.925
			c-14.842-7.649-29.588-15.276-40.079-22.924C368.241,136.327,364.755,133.324,362.079,130.292L362.079,130.292z"/>
		
			<path id="use2816" marker-mid="none" marker-start="none" marker-end="none" opacity="0.8" fill="#24A024" enable-background="new    " d="
			M462.876,222.249c-2.743,3.179-6.151,6.092-10.32,9.131c-10.49,7.648-25.237,15.276-40.078,22.924
			c-14.842,7.649-29.58,15.341-40.079,22.989c-10.499,7.649-16.594,15.276-16.599,22.925c-0.002,2.309,0.037,23.092,0.037,27.736
			c0-4.594,4.129-11.256,6.282-13.878c2.12-2.581,6.125-6.039,10.28-9.066c10.499-7.649,25.237-15.341,40.079-22.989
			c14.841-7.649,29.588-15.276,40.078-22.925c10.491-7.648,16.645-15.275,16.64-22.924c-0.002-2.369,0.006-20.789-0.02-27.629
			C469.208,215.406,465.633,219.053,462.876,222.249z"/>
		
			<path id="use2818" marker-mid="none" marker-start="none" marker-end="none" opacity="0.8" fill="#24A024" enable-background="new    " d="
			M362.079,315.704c-4.058,4.609-6.276,9.184-6.279,13.793c-0.006,7.649,6.109,15.341,16.599,22.989
			c10.491,7.649,25.237,15.276,40.079,22.925c14.841,7.648,29.579,15.275,40.078,22.924c4.162,3.032,7.646,6.034,10.32,9.066
			c4.062-4.609,6.323-9.184,6.32-13.793c-0.006-7.649-6.141-15.341-16.64-22.99c-10.499-7.648-25.237-15.275-40.078-22.924
			c-14.842-7.648-29.588-15.276-40.079-22.924C368.241,321.739,364.755,318.737,362.079,315.704z"/>
		
			<path id="use2832" marker-mid="none" marker-start="none" marker-end="none" opacity="0.8" fill="#24A024" enable-background="new    " d="
			M362.079,499.047c-4.058,4.609-6.276,9.184-6.279,13.793c-0.006,7.649,6.109,15.341,16.599,22.989
			c10.491,7.649,25.237,15.276,40.079,22.925c14.841,7.648,29.58,15.275,40.078,22.924c4.162,3.032,7.646,6.034,10.32,9.066
			c4.062-4.609,6.323-9.184,6.32-13.793c-0.006-7.649-6.141-15.341-16.64-22.99c-10.498-7.648-25.237-15.275-40.078-22.924
			c-14.842-7.648-29.588-15.276-40.079-22.924C368.241,505.082,364.755,502.079,362.079,499.047z"/>
		
			<path id="use2844" marker-mid="none" marker-start="none" marker-end="none" opacity="0.8" fill="#24A024" enable-background="new    " d="
			M462.876,585.151c-2.743,3.179-6.151,6.091-10.32,9.13c-10.49,7.649-25.237,15.276-40.078,22.925
			c-14.842,7.648-29.58,15.34-40.079,22.989c-10.499,7.648-16.593,15.276-16.599,22.924c-0.002,2.31,0.037,23.093,0.037,27.736
			c0-4.593,4.129-11.255,6.282-13.877c2.12-2.582,6.126-6.04,10.28-9.067c10.499-7.648,25.237-15.34,40.079-22.989
			c14.841-7.648,29.588-15.275,40.078-22.924c10.491-7.649,16.645-15.276,16.64-22.924c-0.002-2.369,0.006-20.789-0.02-27.63
			C469.208,578.308,465.633,581.956,462.876,585.151z"/>
		
			<path id="path2866" marker-mid="none" marker-start="none" marker-end="none" opacity="0.8" fill="#24A024" enable-background="new    " d="
			M463.27-265.909c-2.743,3.179-6.151,6.092-10.32,9.131c-10.49,7.648-25.237,15.276-40.079,22.924
			c-14.841,7.649-29.579,15.341-40.078,22.989c-10.499,7.649-16.594,15.276-16.6,22.925c-0.001,2.309,0.038,23.092,0.038,27.736
			c0-4.594,4.129-11.256,6.282-13.878c2.12-2.581,6.125-6.04,10.28-9.066c10.499-7.649,25.237-15.341,40.078-22.989
			c14.842-7.649,29.589-15.276,40.079-22.925c10.491-7.648,16.645-15.275,16.639-22.924c-0.001-2.369,0.007-20.788-0.019-27.629
			C469.602-272.751,466.027-269.104,463.27-265.909L463.27-265.909z"/>
		
			<path id="use2876" marker-mid="none" marker-start="none" marker-end="none" opacity="0.8" fill="#24A024" enable-background="new    " d="
			M462.876-80.656c-2.743,3.179-6.151,6.092-10.32,9.131c-10.49,7.648-25.237,15.276-40.078,22.924
			c-14.842,7.649-29.58,15.341-40.079,22.989C361.9-17.963,355.805-10.336,355.8-2.687c-0.002,2.309,0.037,23.092,0.037,27.736
			c0-4.594,4.129-11.256,6.282-13.878c2.12-2.581,6.125-6.039,10.28-9.066c10.499-7.649,25.237-15.341,40.079-22.989
			c14.841-7.649,29.588-15.276,40.078-22.925c10.491-7.648,16.645-15.275,16.64-22.924c-0.002-2.369,0.006-20.789-0.02-27.629
			C469.208-87.499,465.633-83.851,462.876-80.656z"/>
		
			<path id="use2886" marker-mid="none" marker-start="none" marker-end="none" opacity="0.8" fill="#24A024" enable-background="new    " d="
			M462.876,104.595c-2.743,3.179-6.151,6.092-10.32,9.131c-10.49,7.649-25.237,15.276-40.078,22.924
			c-14.842,7.649-29.58,15.341-40.079,22.989c-10.499,7.648-16.594,15.276-16.599,22.924c-0.002,2.31,0.037,23.093,0.037,27.736
			c0-4.593,4.129-11.255,6.282-13.877c2.12-2.582,6.126-6.04,10.28-9.067c10.499-7.648,25.237-15.34,40.079-22.989
			c14.841-7.649,29.588-15.276,40.078-22.924c10.491-7.649,16.645-15.276,16.64-22.924c-0.002-2.369,0.006-20.788-0.02-27.629
			C469.208,97.752,465.633,101.4,462.876,104.595L462.876,104.595z"/>
		
			<path id="use2896" marker-mid="none" marker-start="none" marker-end="none" opacity="0.8" fill="#24A024" enable-background="new    " d="
			M462.876,288.292c-2.743,3.179-6.151,6.092-10.32,9.131c-10.49,7.649-25.237,15.276-40.078,22.925
			c-14.842,7.648-29.58,15.34-40.079,22.989c-10.499,7.648-16.593,15.276-16.599,22.924c-0.002,2.31,0.037,23.093,0.037,27.736
			c0-4.593,4.129-11.256,6.282-13.878c2.12-2.581,6.126-6.039,10.28-9.066c10.499-7.648,25.237-15.34,40.079-22.989
			c14.841-7.649,29.588-15.276,40.078-22.924c10.491-7.649,16.646-15.276,16.64-22.925c-0.002-2.369,0.006-20.788-0.02-27.629
			C469.208,281.449,465.633,285.096,462.876,288.292L462.876,288.292z"/>
		
			<path id="use2906" marker-mid="none" marker-start="none" marker-end="none" opacity="0.8" fill="#24A024" enable-background="new    " d="
			M462.876,473.445c-2.743,3.179-6.151,6.091-10.32,9.131c-10.49,7.648-25.237,15.275-40.078,22.924
			c-14.842,7.649-29.58,15.34-40.079,22.989c-10.499,7.649-16.594,15.276-16.599,22.924c-0.002,2.31,0.037,23.093,0.037,27.736
			c0-4.593,4.129-11.255,6.282-13.877c2.12-2.582,6.125-6.04,10.28-9.066c10.499-7.649,25.237-15.341,40.079-22.99
			c14.841-7.648,29.588-15.275,40.078-22.924c10.491-7.649,16.645-15.276,16.64-22.924c-0.002-2.369,0.006-20.789-0.02-27.63
			C469.208,466.603,465.633,470.25,462.876,473.445z"/>
		
			<path id="path2920" marker-mid="none" marker-start="none" marker-end="none" opacity="0.8" fill="#24A024" enable-background="new    " d="
			M462.876-331.951c-2.743,3.179-6.151,6.091-10.32,9.13c-10.49,7.649-25.237,15.276-40.078,22.925
			c-14.842,7.648-29.58,15.34-40.079,22.989s-16.594,15.276-16.599,22.924c-0.002,2.31,0.037,23.093,0.037,27.736
			c0-4.593,4.129-11.255,6.282-13.878c2.12-2.581,6.126-6.039,10.28-9.066c10.499-7.648,25.237-15.34,40.079-22.989
			c14.841-7.648,29.588-15.276,40.078-22.924c10.491-7.649,16.645-15.276,16.64-22.924c-0.002-2.369,0.006-20.789-0.02-27.63
			C469.208-338.794,465.633-335.147,462.876-331.951z"/>
		
			<path id="use2830" marker-mid="none" marker-start="none" marker-end="none" opacity="0.8" fill="#24A024" enable-background="new    " d="
			M461.876,408.401c-2.743,3.179-6.151,6.092-10.32,9.131c-10.49,7.649-25.237,15.276-40.078,22.924
			c-14.842,7.649-29.58,15.341-40.079,22.99c-10.499,7.648-16.594,15.275-16.599,22.924c-0.002,2.309,0.037,23.093,0.037,27.736
			c0-4.594,4.129-11.256,6.282-13.878c2.12-2.581,6.125-6.039,10.28-9.066c10.499-7.649,25.237-15.341,40.079-22.989
			c14.841-7.649,29.588-15.276,40.078-22.924c10.491-7.649,16.645-15.276,16.64-22.925c-0.002-2.369,0.006-20.788-0.02-27.629
			C468.208,401.558,464.633,405.207,461.876,408.401z"/>
	</g>
</g>
<rect id="_x3C_Slice_x3E_" x="-0.5" y="150.5" fill="none" width="647" height="13"/>
</svg>
